<svg xmlns="http://www.w3.org/2000/svg" xmlns:xlink="http://www.w3.org/1999/xlink" width="1920" zoomAndPan="magnify" viewBox="0 0 1440 527.249983" height="703" preserveAspectRatio="xMidYMid meet" version="1.0"><defs><g/></defs><g fill="#000000" fill-opacity="1"><g transform="translate(24.239723, 323.165282)"><g><path d="M 226.484375 19.765625 C 220.890625 19.765625 216.59375 17.566406 213.59375 13.171875 C 210.601562 8.785156 209.109375 3.597656 209.109375 -2.390625 C 209.109375 -13.972656 214.398438 -29.753906 224.984375 -49.734375 C 217.597656 -49.128906 210.207031 -48.828125 202.8125 -48.828125 C 197.414062 -48.828125 187.226562 -49.128906 172.25 -49.734375 L 133.90625 -50.921875 C 119.925781 -28.554688 108.546875 -8.1875 99.765625 10.1875 C 97.160156 15.582031 93.664062 18.28125 89.28125 18.28125 C 86.28125 18.28125 84.78125 16.878906 84.78125 14.078125 C 84.78125 12.078125 85.378906 9.878906 86.578125 7.484375 C 89.972656 0.0976562 94.414062 -8.484375 99.90625 -18.265625 C 105.394531 -28.054688 111.835938 -39.046875 119.234375 -51.234375 C 102.859375 -51.234375 91.972656 -50.53125 86.578125 -49.125 C 77.585938 -46.925781 70.894531 -42.4375 66.5 -35.65625 C 64.90625 -33.457031 63.609375 -32.257812 62.609375 -32.0625 C 61.410156 -31.851562 60.8125 -32.347656 60.8125 -33.546875 C 60.8125 -34.546875 61.210938 -35.445312 62.015625 -36.25 C 69.597656 -46.4375 77.285156 -53.523438 85.078125 -57.515625 C 93.066406 -61.710938 106.945312 -63.507812 126.71875 -62.90625 C 139.101562 -81.476562 156.179688 -109.039062 177.953125 -145.59375 C 186.140625 -160.96875 190.234375 -173.453125 190.234375 -183.046875 C 190.234375 -198.617188 179.75 -206.40625 158.78125 -206.40625 C 133.21875 -206.40625 109.453125 -199.71875 87.484375 -186.34375 C 75.890625 -179.144531 65 -170.101562 54.8125 -159.21875 C 44.632812 -148.34375 36.445312 -136.757812 30.25 -124.46875 C 24.0625 -112.1875 20.96875 -100.15625 20.96875 -88.375 C 20.96875 -69.800781 29.65625 -60.515625 47.03125 -60.515625 C 54.820312 -60.515625 61.710938 -62.359375 67.703125 -66.046875 C 73.691406 -69.742188 78.984375 -74.488281 83.578125 -80.28125 C 92.566406 -91.46875 97.0625 -102.554688 97.0625 -113.546875 C 97.0625 -119.734375 95.460938 -124.820312 92.265625 -128.8125 C 91.867188 -129.21875 91.671875 -129.71875 91.671875 -130.3125 C 91.671875 -131.707031 92.46875 -132.40625 94.0625 -132.40625 C 95.0625 -132.40625 95.660156 -132.109375 95.859375 -131.515625 C 99.859375 -126.316406 101.859375 -120.125 101.859375 -112.9375 C 101.859375 -100.757812 96.863281 -88.28125 86.875 -75.5 C 80.6875 -67.90625 74.347656 -62.359375 67.859375 -58.859375 C 61.367188 -55.367188 53.925781 -53.625 45.53125 -53.625 C 32.945312 -53.625 23.160156 -57.566406 16.171875 -65.453125 C 9.179688 -73.347656 5.6875 -83.484375 5.6875 -95.859375 C 5.6875 -112.640625 10.726562 -128.519531 20.8125 -143.5 C 30.90625 -158.476562 43.640625 -171.359375 59.015625 -182.140625 C 89.367188 -203.515625 123.222656 -213.703125 160.578125 -212.703125 C 168.566406 -212.503906 176.054688 -211.054688 183.046875 -208.359375 C 190.035156 -205.660156 195.675781 -201.765625 199.96875 -196.671875 C 204.257812 -191.578125 206.40625 -185.238281 206.40625 -177.65625 C 206.40625 -168.0625 202.710938 -157.375 195.328125 -145.59375 L 141.09375 -62.3125 C 145.09375 -62.113281 150.285156 -61.765625 156.671875 -61.265625 C 163.066406 -60.765625 170.660156 -60.015625 179.453125 -59.015625 C 186.835938 -58.210938 193.023438 -57.660156 198.015625 -57.359375 C 203.015625 -57.066406 206.8125 -56.921875 209.40625 -56.921875 C 214 -56.921875 217.941406 -56.921875 221.234375 -56.921875 C 224.535156 -56.921875 227.179688 -57.019531 229.171875 -57.21875 L 240.5625 -76.09375 C 250.550781 -92.664062 260.984375 -108.390625 271.859375 -123.265625 C 282.742188 -138.148438 294.082031 -152.179688 305.875 -165.359375 C 332.632812 -194.921875 355.5 -213.097656 374.46875 -219.890625 C 375.070312 -220.085938 375.769531 -220.1875 376.5625 -220.1875 C 377.769531 -220.1875 378.375 -219.390625 378.375 -217.796875 C 378.375 -217.191406 378.070312 -216.691406 377.46875 -216.296875 C 371.28125 -212.898438 363.738281 -206.957031 354.84375 -198.46875 C 345.957031 -189.976562 335.625 -178.941406 323.84375 -165.359375 C 299.082031 -136.804688 278.015625 -107.953125 260.640625 -78.796875 L 248.953125 -59.015625 C 258.140625 -60.210938 264.726562 -62.507812 268.71875 -65.90625 C 269.519531 -66.507812 270.21875 -66.210938 270.8125 -65.015625 C 271.414062 -63.609375 271.316406 -62.609375 270.515625 -62.015625 C 264.523438 -57.421875 256.039062 -54.125 245.0625 -52.125 C 231.070312 -26.164062 224.078125 -7.890625 224.078125 2.703125 C 224.078125 9.484375 226.972656 12.875 232.765625 12.875 C 236.765625 12.875 241.410156 11.523438 246.703125 8.828125 C 251.992188 6.140625 256.238281 3.097656 259.4375 -0.296875 C 259.832031 -0.703125 260.128906 -0.90625 260.328125 -0.90625 C 260.929688 -0.90625 261.234375 -0.300781 261.234375 0.90625 C 261.035156 2.300781 260.535156 3.394531 259.734375 4.1875 C 257.335938 6.582031 254.140625 8.976562 250.140625 11.375 C 246.148438 13.78125 242.007812 15.78125 237.71875 17.375 C 233.425781 18.96875 229.679688 19.765625 226.484375 19.765625 Z M 226.484375 19.765625 "/></g></g></g><g fill="#000000" fill-opacity="1"><g transform="translate(309.133937, 323.165282)"><g><path d="M 15.28125 3.890625 C 8.882812 3.890625 3.09375 1.84375 -2.09375 -2.25 C -7.289062 -6.34375 -9.890625 -11.785156 -9.890625 -18.578125 C -9.890625 -32.753906 -1.203125 -48.929688 16.171875 -67.109375 C 33.953125 -85.484375 49.832031 -94.671875 63.8125 -94.671875 C 68.40625 -94.671875 72.148438 -93.421875 75.046875 -90.921875 C 77.941406 -88.421875 79.390625 -85.375 79.390625 -81.78125 C 79.390625 -70.601562 70.5 -59.617188 52.71875 -48.828125 C 36.945312 -39.242188 23.664062 -34.453125 12.875 -34.453125 C 11.28125 -34.453125 9.882812 -34.648438 8.6875 -35.046875 C 5.6875 -29.660156 4.1875 -23.96875 4.1875 -17.96875 C 4.1875 -7.582031 9.082031 -2.390625 18.875 -2.390625 C 28.863281 -2.390625 41.742188 -9.082031 57.515625 -22.46875 C 69.703125 -32.25 80.085938 -42.632812 88.671875 -53.625 C 90.472656 -56.019531 92.070312 -57.21875 93.46875 -57.21875 C 94.664062 -57.21875 95.265625 -56.617188 95.265625 -55.421875 C 95.265625 -54.222656 94.46875 -52.523438 92.875 -50.328125 C 87.28125 -42.941406 81.285156 -36.148438 74.890625 -29.953125 C 68.503906 -23.765625 61.613281 -18.070312 54.21875 -12.875 C 38.84375 -1.695312 25.863281 3.890625 15.28125 3.890625 Z M 17.078125 -41.046875 C 24.660156 -41.046875 34.546875 -44.835938 46.734375 -52.421875 C 50.722656 -55.222656 54.664062 -58.367188 58.5625 -61.859375 C 62.457031 -65.359375 65.65625 -68.90625 68.15625 -72.5 C 70.65625 -76.09375 71.90625 -79.285156 71.90625 -82.078125 C 71.90625 -84.679688 69.804688 -85.984375 65.609375 -85.984375 C 59.617188 -85.984375 51.226562 -81.488281 40.4375 -72.5 C 35.25 -68.101562 30.257812 -63.304688 25.46875 -58.109375 C 20.675781 -52.921875 16.582031 -47.429688 13.1875 -41.640625 C 14.382812 -41.242188 15.679688 -41.046875 17.078125 -41.046875 Z M 17.078125 -41.046875 "/></g></g></g><g fill="#000000" fill-opacity="1"><g transform="translate(386.124245, 323.165282)"><g><path d="M 22.765625 0.59375 C 16.972656 0.59375 11.578125 -0.851562 6.578125 -3.75 C 1.585938 -6.644531 -0.90625 -11.488281 -0.90625 -18.28125 C -0.90625 -27.664062 2.4375 -38.847656 9.125 -51.828125 C 15.820312 -64.804688 23.46875 -78.285156 32.0625 -92.265625 C 55.425781 -130.210938 72 -149.1875 81.78125 -149.1875 C 83.78125 -149.1875 85.828125 -148.4375 87.921875 -146.9375 C 90.023438 -145.445312 91.175781 -143.800781 91.375 -142 L 70.40625 -113.84375 C 62.21875 -102.851562 54.828125 -92.710938 48.234375 -83.421875 C 41.640625 -74.140625 35.945312 -65.804688 31.15625 -58.421875 C 28.757812 -54.617188 26.0625 -50.320312 23.0625 -45.53125 C 20.070312 -40.738281 17.425781 -35.796875 15.125 -30.703125 C 12.832031 -25.609375 11.6875 -20.46875 11.6875 -15.28125 C 11.6875 -12.882812 12.382812 -10.734375 13.78125 -8.828125 C 15.175781 -6.929688 17.671875 -5.984375 21.265625 -5.984375 C 27.660156 -5.984375 36.050781 -9.425781 46.4375 -16.3125 C 56.820312 -23.207031 67.109375 -32.75 77.296875 -44.9375 C 78.296875 -46.132812 79.394531 -47.234375 80.59375 -48.234375 C 81.789062 -49.234375 82.785156 -49.734375 83.578125 -49.734375 C 84.578125 -49.734375 85.078125 -49.132812 85.078125 -47.9375 C 85.078125 -47.332031 84.425781 -46.179688 83.125 -44.484375 C 81.832031 -42.785156 80.785156 -41.4375 79.984375 -40.4375 L 72.796875 -32.359375 C 68.804688 -27.960938 64.0625 -23.164062 58.5625 -17.96875 C 53.070312 -12.78125 47.28125 -8.390625 41.1875 -4.796875 C 35.101562 -1.203125 28.960938 0.59375 22.765625 0.59375 Z M 22.765625 0.59375 "/></g></g></g><g fill="#000000" fill-opacity="1"><g transform="translate(458.92056, 323.165282)"><g><path d="M 22.765625 0.59375 C 16.972656 0.59375 11.578125 -0.851562 6.578125 -3.75 C 1.585938 -6.644531 -0.90625 -11.488281 -0.90625 -18.28125 C -0.90625 -27.664062 2.4375 -38.847656 9.125 -51.828125 C 15.820312 -64.804688 23.46875 -78.285156 32.0625 -92.265625 C 55.425781 -130.210938 72 -149.1875 81.78125 -149.1875 C 83.78125 -149.1875 85.828125 -148.4375 87.921875 -146.9375 C 90.023438 -145.445312 91.175781 -143.800781 91.375 -142 L 70.40625 -113.84375 C 62.21875 -102.851562 54.828125 -92.710938 48.234375 -83.421875 C 41.640625 -74.140625 35.945312 -65.804688 31.15625 -58.421875 C 28.757812 -54.617188 26.0625 -50.320312 23.0625 -45.53125 C 20.070312 -40.738281 17.425781 -35.796875 15.125 -30.703125 C 12.832031 -25.609375 11.6875 -20.46875 11.6875 -15.28125 C 11.6875 -12.882812 12.382812 -10.734375 13.78125 -8.828125 C 15.175781 -6.929688 17.671875 -5.984375 21.265625 -5.984375 C 27.660156 -5.984375 36.050781 -9.425781 46.4375 -16.3125 C 56.820312 -23.207031 67.109375 -32.75 77.296875 -44.9375 C 78.296875 -46.132812 79.394531 -47.234375 80.59375 -48.234375 C 81.789062 -49.234375 82.785156 -49.734375 83.578125 -49.734375 C 84.578125 -49.734375 85.078125 -49.132812 85.078125 -47.9375 C 85.078125 -47.332031 84.425781 -46.179688 83.125 -44.484375 C 81.832031 -42.785156 80.785156 -41.4375 79.984375 -40.4375 L 72.796875 -32.359375 C 68.804688 -27.960938 64.0625 -23.164062 58.5625 -17.96875 C 53.070312 -12.78125 47.28125 -8.390625 41.1875 -4.796875 C 35.101562 -1.203125 28.960938 0.59375 22.765625 0.59375 Z M 22.765625 0.59375 "/></g></g></g><g fill="#000000" fill-opacity="1"><g transform="translate(531.716876, 323.165282)"><g><path d="M 12.875 0.59375 C 7.882812 0.59375 3.988281 -1.75 1.1875 -6.4375 C -1.601562 -11.132812 -3 -15.679688 -3 -20.078125 C -3 -32.054688 5.6875 -48.832031 23.0625 -70.40625 C 40.644531 -92.175781 54.828125 -103.0625 65.609375 -103.0625 C 75.796875 -103.0625 80.890625 -97.664062 80.890625 -86.875 C 80.890625 -85.28125 80.738281 -83.582031 80.4375 -81.78125 C 80.132812 -79.988281 79.785156 -78.09375 79.390625 -76.09375 C 79.785156 -75.488281 80.785156 -75.1875 82.390625 -75.1875 C 87.773438 -75.1875 94.164062 -77.085938 101.5625 -80.890625 C 101.351562 -77.492188 93.460938 -72.597656 77.890625 -66.203125 C 80.085938 -59.617188 73.5 -47.035156 58.125 -28.453125 C 42.34375 -9.085938 28.859375 0.59375 17.671875 0.59375 Z M 18.28125 -8.390625 C 26.863281 -8.390625 37.847656 -16.28125 51.234375 -32.0625 C 64.210938 -47.4375 70.703125 -58.519531 70.703125 -65.3125 C 67.503906 -67.101562 63.507812 -71.695312 58.71875 -79.09375 C 51.925781 -79.09375 42.140625 -70.898438 29.359375 -54.515625 C 16.773438 -38.546875 10.679688 -26.265625 11.078125 -17.671875 C 11.285156 -11.484375 13.6875 -8.390625 18.28125 -8.390625 Z M 18.28125 -8.390625 "/></g></g></g><g fill="#000000" fill-opacity="1"><g transform="translate(615.896961, 323.165282)"><g/></g></g><g fill="#000000" fill-opacity="1"><g transform="translate(675.212453, 323.165282)"><g><path d="M 63.8125 32.359375 C 48.226562 32.359375 35.84375 28.710938 26.65625 21.421875 C 17.46875 14.128906 12.875 3.59375 12.875 -10.1875 C 12.875 -20.175781 15.019531 -29.613281 19.3125 -38.5 C 23.613281 -47.382812 29.457031 -55.320312 36.84375 -62.3125 C 44.238281 -69.300781 52.675781 -74.789062 62.15625 -78.78125 C 71.644531 -82.78125 81.582031 -84.78125 91.96875 -84.78125 C 102.550781 -84.78125 110.890625 -82.382812 116.984375 -77.59375 C 123.078125 -72.800781 126.125 -66.3125 126.125 -58.125 C 126.125 -52.125 122.226562 -44.332031 114.4375 -34.75 C 106.644531 -25.164062 102.75 -21.972656 102.75 -25.171875 C 102.75 -25.960938 103.050781 -26.757812 103.65625 -27.5625 C 110.039062 -36.945312 113.234375 -45.734375 113.234375 -53.921875 C 113.234375 -61.316406 110.882812 -67.207031 106.1875 -71.59375 C 101.5 -75.988281 95.363281 -78.1875 87.78125 -78.1875 C 79.382812 -78.1875 71.34375 -76.140625 63.65625 -72.046875 C 55.96875 -67.953125 49.128906 -62.507812 43.140625 -55.71875 C 37.148438 -48.925781 32.457031 -41.4375 29.0625 -33.25 C 25.664062 -25.0625 23.96875 -16.972656 23.96875 -8.984375 C 23.96875 1.992188 27.507812 10.328125 34.59375 16.015625 C 41.6875 21.710938 51.023438 24.5625 62.609375 24.5625 C 74.390625 24.5625 85.722656 22.414062 96.609375 18.125 C 107.492188 13.832031 117.234375 7.691406 125.828125 -0.296875 C 136.003906 -9.878906 146.285156 -23.859375 156.671875 -42.234375 L 182.75 -89.28125 C 189.53125 -100.0625 196.613281 -113.085938 204 -128.359375 C 211.394531 -143.640625 219.1875 -161.164062 227.375 -180.9375 C 198.613281 -181.34375 170.65625 -178.550781 143.5 -172.5625 C 114.539062 -166.363281 93.070312 -157.773438 79.09375 -146.796875 C 73.09375 -142.398438 70.09375 -137.804688 70.09375 -133.015625 C 70.09375 -128.816406 72.441406 -125.367188 77.140625 -122.671875 C 81.835938 -119.984375 87.78125 -118.640625 94.96875 -118.640625 C 99.15625 -118.640625 104.144531 -119.238281 109.9375 -120.4375 C 115.738281 -121.632812 121.332031 -123.28125 126.71875 -125.375 C 132.113281 -127.46875 136.207031 -129.8125 139 -132.40625 C 141 -134.007812 142.398438 -134.8125 143.203125 -134.8125 C 144.796875 -134.8125 145.09375 -134.007812 144.09375 -132.40625 C 139.90625 -127.414062 134.460938 -123.222656 127.765625 -119.828125 C 121.078125 -116.429688 114.035156 -113.882812 106.640625 -112.1875 C 99.253906 -110.488281 92.367188 -109.640625 85.984375 -109.640625 C 76.191406 -109.640625 68.550781 -111.585938 63.0625 -115.484375 C 57.570312 -119.378906 54.828125 -124.421875 54.828125 -130.609375 C 54.828125 -137.804688 58.421875 -144.800781 65.609375 -151.59375 C 79.191406 -164.769531 103.457031 -174.550781 138.40625 -180.9375 C 151.988281 -183.34375 166.566406 -185.09375 182.140625 -186.1875 C 197.722656 -187.28125 214.300781 -187.726562 231.875 -187.53125 C 236.269531 -191.332031 240.460938 -193.234375 244.453125 -193.234375 C 248.453125 -193.234375 249.953125 -191.132812 248.953125 -186.9375 C 261.535156 -186.132812 274.265625 -184.535156 287.140625 -182.140625 C 300.023438 -179.742188 311.804688 -176.398438 322.484375 -172.109375 C 333.171875 -167.816406 341.8125 -162.523438 348.40625 -156.234375 C 355 -149.941406 358.296875 -142.5 358.296875 -133.90625 C 358.296875 -124.71875 355.25 -115.976562 349.15625 -107.6875 C 343.0625 -99.40625 335.269531 -92.066406 325.78125 -85.671875 C 316.300781 -79.285156 306.367188 -74.195312 295.984375 -70.40625 C 286.398438 -67.007812 276.164062 -64.3125 265.28125 -62.3125 C 254.394531 -60.3125 243.660156 -59.3125 233.078125 -59.3125 C 225.085938 -59.3125 217.445312 -59.910156 210.15625 -61.109375 C 202.863281 -62.304688 196.222656 -64.207031 190.234375 -66.8125 C 178.046875 -49.03125 167.90625 -34.546875 159.8125 -23.359375 C 151.726562 -12.179688 145.488281 -4.394531 141.09375 0 C 119.53125 21.570312 93.769531 32.359375 63.8125 32.359375 Z M 225.578125 -66.5 C 232.972656 -66.5 240.3125 -67.25 247.59375 -68.75 C 254.882812 -70.25 262.726562 -72.296875 271.125 -74.890625 C 279.507812 -77.691406 287.992188 -81.238281 296.578125 -85.53125 C 305.171875 -89.820312 313.0625 -94.710938 320.25 -100.203125 C 327.4375 -105.703125 333.226562 -111.597656 337.625 -117.890625 C 342.019531 -124.179688 344.21875 -130.519531 344.21875 -136.90625 C 344.21875 -144.09375 341.21875 -150.332031 335.21875 -155.625 C 329.226562 -160.914062 321.335938 -165.257812 311.546875 -168.65625 C 301.765625 -172.050781 291.179688 -174.695312 279.796875 -176.59375 C 268.421875 -178.5 257.441406 -179.75 246.859375 -180.34375 L 237.265625 -150.390625 C 233.867188 -141.796875 229.070312 -131.804688 222.875 -120.421875 C 216.6875 -109.046875 209.101562 -96.265625 200.125 -82.078125 L 193.53125 -71.90625 C 194.925781 -71.101562 196.472656 -70.453125 198.171875 -69.953125 C 199.867188 -69.453125 201.71875 -69.003906 203.71875 -68.609375 C 207.507812 -67.804688 211.203125 -67.253906 214.796875 -66.953125 C 218.390625 -66.648438 221.984375 -66.5 225.578125 -66.5 Z M 225.578125 -66.5 "/></g></g></g><g fill="#000000" fill-opacity="1"><g transform="translate(991.861495, 323.165282)"><g><path d="M 15.28125 3.890625 C 8.882812 3.890625 3.09375 1.84375 -2.09375 -2.25 C -7.289062 -6.34375 -9.890625 -11.785156 -9.890625 -18.578125 C -9.890625 -32.753906 -1.203125 -48.929688 16.171875 -67.109375 C 33.953125 -85.484375 49.832031 -94.671875 63.8125 -94.671875 C 68.40625 -94.671875 72.148438 -93.421875 75.046875 -90.921875 C 77.941406 -88.421875 79.390625 -85.375 79.390625 -81.78125 C 79.390625 -70.601562 70.5 -59.617188 52.71875 -48.828125 C 36.945312 -39.242188 23.664062 -34.453125 12.875 -34.453125 C 11.28125 -34.453125 9.882812 -34.648438 8.6875 -35.046875 C 5.6875 -29.660156 4.1875 -23.96875 4.1875 -17.96875 C 4.1875 -7.582031 9.082031 -2.390625 18.875 -2.390625 C 28.863281 -2.390625 41.742188 -9.082031 57.515625 -22.46875 C 69.703125 -32.25 80.085938 -42.632812 88.671875 -53.625 C 90.472656 -56.019531 92.070312 -57.21875 93.46875 -57.21875 C 94.664062 -57.21875 95.265625 -56.617188 95.265625 -55.421875 C 95.265625 -54.222656 94.46875 -52.523438 92.875 -50.328125 C 87.28125 -42.941406 81.285156 -36.148438 74.890625 -29.953125 C 68.503906 -23.765625 61.613281 -18.070312 54.21875 -12.875 C 38.84375 -1.695312 25.863281 3.890625 15.28125 3.890625 Z M 17.078125 -41.046875 C 24.660156 -41.046875 34.546875 -44.835938 46.734375 -52.421875 C 50.722656 -55.222656 54.664062 -58.367188 58.5625 -61.859375 C 62.457031 -65.359375 65.65625 -68.90625 68.15625 -72.5 C 70.65625 -76.09375 71.90625 -79.285156 71.90625 -82.078125 C 71.90625 -84.679688 69.804688 -85.984375 65.609375 -85.984375 C 59.617188 -85.984375 51.226562 -81.488281 40.4375 -72.5 C 35.25 -68.101562 30.257812 -63.304688 25.46875 -58.109375 C 20.675781 -52.921875 16.582031 -47.429688 13.1875 -41.640625 C 14.382812 -41.242188 15.679688 -41.046875 17.078125 -41.046875 Z M 17.078125 -41.046875 "/></g></g></g><g fill="#000000" fill-opacity="1"><g transform="translate(1068.851826, 323.165282)"><g><path d="M 12.875 0.59375 C 7.882812 0.59375 3.988281 -1.75 1.1875 -6.4375 C -1.601562 -11.132812 -3 -15.679688 -3 -20.078125 C -3 -32.054688 5.6875 -48.832031 23.0625 -70.40625 C 40.644531 -92.175781 54.828125 -103.0625 65.609375 -103.0625 C 75.796875 -103.0625 80.890625 -97.664062 80.890625 -86.875 C 80.890625 -85.28125 80.738281 -83.582031 80.4375 -81.78125 C 80.132812 -79.988281 79.785156 -78.09375 79.390625 -76.09375 C 79.785156 -75.488281 80.785156 -75.1875 82.390625 -75.1875 C 87.773438 -75.1875 94.164062 -77.085938 101.5625 -80.890625 C 101.351562 -77.492188 93.460938 -72.597656 77.890625 -66.203125 C 80.085938 -59.617188 73.5 -47.035156 58.125 -28.453125 C 42.34375 -9.085938 28.859375 0.59375 17.671875 0.59375 Z M 18.28125 -8.390625 C 26.863281 -8.390625 37.847656 -16.28125 51.234375 -32.0625 C 64.210938 -47.4375 70.703125 -58.519531 70.703125 -65.3125 C 67.503906 -67.101562 63.507812 -71.695312 58.71875 -79.09375 C 51.925781 -79.09375 42.140625 -70.898438 29.359375 -54.515625 C 16.773438 -38.546875 10.679688 -26.265625 11.078125 -17.671875 C 11.285156 -11.484375 13.6875 -8.390625 18.28125 -8.390625 Z M 18.28125 -8.390625 "/></g></g></g><g fill="#000000" fill-opacity="1"><g transform="translate(1153.031911, 323.165282)"><g><path d="M -17.375 56.625 C -25.757812 52.03125 -29.953125 43.34375 -29.953125 30.5625 C -29.953125 16.78125 -18.671875 -6.785156 3.890625 -40.140625 C 25.460938 -72.296875 40.441406 -89.671875 48.828125 -92.265625 C 49.628906 -92.460938 50.328125 -92.613281 50.921875 -92.71875 C 51.523438 -92.820312 52.125 -92.875 52.71875 -92.875 C 56.113281 -92.875 57.8125 -89.175781 57.8125 -81.78125 C 59.21875 -83.175781 61.664062 -84.523438 65.15625 -85.828125 C 68.65625 -87.128906 72.25 -88.175781 75.9375 -88.96875 C 79.632812 -89.769531 82.382812 -90.269531 84.1875 -90.46875 C 92.375 -90.875 99.210938 -88.925781 104.703125 -84.625 C 110.191406 -80.332031 112.9375 -74.691406 112.9375 -67.703125 C 112.9375 -51.523438 103.25 -35.847656 83.875 -20.671875 C 66.300781 -6.890625 50.722656 0 37.140625 0 C 28.160156 0 21.972656 -0.5 18.578125 -1.5 C 13.785156 -2.894531 8.890625 -6.585938 3.890625 -12.578125 C 1.691406 -10.785156 -0.703125 -7.738281 -3.296875 -3.4375 C -5.890625 0.851562 -8.332031 5.546875 -10.625 10.640625 C -12.925781 15.734375 -14.828125 20.773438 -16.328125 25.765625 C -17.828125 30.753906 -18.578125 34.945312 -18.578125 38.34375 C -18.578125 41.738281 -17.925781 44.582031 -16.625 46.875 C -15.320312 49.175781 -14.070312 51.328125 -12.875 53.328125 C -12.875 53.523438 -12.820312 53.671875 -12.71875 53.765625 C -12.625 53.867188 -12.578125 53.921875 -12.578125 53.921875 C -12.578125 54.921875 -13.125 55.769531 -14.21875 56.46875 C -15.320312 57.164062 -16.375 57.21875 -17.375 56.625 Z M 33.25 -8.390625 C 44.4375 -8.390625 57.320312 -14.082031 71.90625 -25.46875 C 89.070312 -39.039062 97.65625 -54.117188 97.65625 -70.703125 C 97.65625 -78.285156 92.960938 -82.078125 83.578125 -82.078125 C 74.992188 -82.078125 67.003906 -80.179688 59.609375 -76.390625 C 57.617188 -75.585938 54.375 -72.988281 49.875 -68.59375 C 45.382812 -64.207031 39.445312 -58.21875 32.0625 -50.625 C 16.28125 -34.25 8.390625 -23.765625 8.390625 -19.171875 C 8.390625 -15.578125 11.6875 -12.679688 18.28125 -10.484375 C 22.664062 -9.085938 27.65625 -8.390625 33.25 -8.390625 Z M 33.25 -8.390625 "/></g></g></g><g fill="#000000" fill-opacity="1"><g transform="translate(1265.971103, 323.165282)"><g><path d="M 22.765625 0.59375 C 16.972656 0.59375 11.578125 -0.851562 6.578125 -3.75 C 1.585938 -6.644531 -0.90625 -11.488281 -0.90625 -18.28125 C -0.90625 -27.664062 2.4375 -38.847656 9.125 -51.828125 C 15.820312 -64.804688 23.46875 -78.285156 32.0625 -92.265625 C 55.425781 -130.210938 72 -149.1875 81.78125 -149.1875 C 83.78125 -149.1875 85.828125 -148.4375 87.921875 -146.9375 C 90.023438 -145.445312 91.175781 -143.800781 91.375 -142 L 70.40625 -113.84375 C 62.21875 -102.851562 54.828125 -92.710938 48.234375 -83.421875 C 41.640625 -74.140625 35.945312 -65.804688 31.15625 -58.421875 C 28.757812 -54.617188 26.0625 -50.320312 23.0625 -45.53125 C 20.070312 -40.738281 17.425781 -35.796875 15.125 -30.703125 C 12.832031 -25.609375 11.6875 -20.46875 11.6875 -15.28125 C 11.6875 -12.882812 12.382812 -10.734375 13.78125 -8.828125 C 15.175781 -6.929688 17.671875 -5.984375 21.265625 -5.984375 C 27.660156 -5.984375 36.050781 -9.425781 46.4375 -16.3125 C 56.820312 -23.207031 67.109375 -32.75 77.296875 -44.9375 C 78.296875 -46.132812 79.394531 -47.234375 80.59375 -48.234375 C 81.789062 -49.234375 82.785156 -49.734375 83.578125 -49.734375 C 84.578125 -49.734375 85.078125 -49.132812 85.078125 -47.9375 C 85.078125 -47.332031 84.425781 -46.179688 83.125 -44.484375 C 81.832031 -42.785156 80.785156 -41.4375 79.984375 -40.4375 L 72.796875 -32.359375 C 68.804688 -27.960938 64.0625 -23.164062 58.5625 -17.96875 C 53.070312 -12.78125 47.28125 -8.390625 41.1875 -4.796875 C 35.101562 -1.203125 28.960938 0.59375 22.765625 0.59375 Z M 22.765625 0.59375 "/></g></g></g><g fill="#000000" fill-opacity="1"><g transform="translate(1338.767327, 323.165282)"><g><path d="M 15.28125 3.890625 C 8.882812 3.890625 3.09375 1.84375 -2.09375 -2.25 C -7.289062 -6.34375 -9.890625 -11.785156 -9.890625 -18.578125 C -9.890625 -32.753906 -1.203125 -48.929688 16.171875 -67.109375 C 33.953125 -85.484375 49.832031 -94.671875 63.8125 -94.671875 C 68.40625 -94.671875 72.148438 -93.421875 75.046875 -90.921875 C 77.941406 -88.421875 79.390625 -85.375 79.390625 -81.78125 C 79.390625 -70.601562 70.5 -59.617188 52.71875 -48.828125 C 36.945312 -39.242188 23.664062 -34.453125 12.875 -34.453125 C 11.28125 -34.453125 9.882812 -34.648438 8.6875 -35.046875 C 5.6875 -29.660156 4.1875 -23.96875 4.1875 -17.96875 C 4.1875 -7.582031 9.082031 -2.390625 18.875 -2.390625 C 28.863281 -2.390625 41.742188 -9.082031 57.515625 -22.46875 C 69.703125 -32.25 80.085938 -42.632812 88.671875 -53.625 C 90.472656 -56.019531 92.070312 -57.21875 93.46875 -57.21875 C 94.664062 -57.21875 95.265625 -56.617188 95.265625 -55.421875 C 95.265625 -54.222656 94.46875 -52.523438 92.875 -50.328125 C 87.28125 -42.941406 81.285156 -36.148438 74.890625 -29.953125 C 68.503906 -23.765625 61.613281 -18.070312 54.21875 -12.875 C 38.84375 -1.695312 25.863281 3.890625 15.28125 3.890625 Z M 17.078125 -41.046875 C 24.660156 -41.046875 34.546875 -44.835938 46.734375 -52.421875 C 50.722656 -55.222656 54.664062 -58.367188 58.5625 -61.859375 C 62.457031 -65.359375 65.65625 -68.90625 68.15625 -72.5 C 70.65625 -76.09375 71.90625 -79.285156 71.90625 -82.078125 C 71.90625 -84.679688 69.804688 -85.984375 65.609375 -85.984375 C 59.617188 -85.984375 51.226562 -81.488281 40.4375 -72.5 C 35.25 -68.101562 30.257812 -63.304688 25.46875 -58.109375 C 20.675781 -52.921875 16.582031 -47.429688 13.1875 -41.640625 C 14.382812 -41.242188 15.679688 -41.046875 17.078125 -41.046875 Z M 17.078125 -41.046875 "/></g></g></g></svg>