<svg xmlns="http://www.w3.org/2000/svg" xmlns:xlink="http://www.w3.org/1999/xlink" width="64" zoomAndPan="magnify" viewBox="0 0 48 48" height="64" preserveAspectRatio="xMidYMid meet" version="1.2"><defs><clipPath id="2344306cac"><path d="M 0.488281 0 L 47.507812 0 L 47.507812 47.019531 L 0.488281 47.019531 Z M 0.488281 0 "/></clipPath><clipPath id="bf598f7d6c"><path d="M 24 0 C 11.015625 0 0.488281 10.527344 0.488281 23.511719 C 0.488281 36.496094 11.015625 47.019531 24 47.019531 C 36.984375 47.019531 47.511719 36.496094 47.511719 23.511719 C 47.511719 10.527344 36.984375 0 24 0 Z M 24 0 "/></clipPath></defs><g id="a17ed48a34"><g clip-rule="nonzero" clip-path="url(#2344306cac)"><g clip-rule="nonzero" clip-path="url(#bf598f7d6c)"><path style=" stroke:none;fill-rule:nonzero;fill:#252525;fill-opacity:1;" d="M 0.488281 0 L 47.511719 0 L 47.511719 47.019531 L 0.488281 47.019531 Z M 0.488281 0 "/></g></g><g style="fill:#f9c74f;fill-opacity:1;"><g transform="translate(6.417872, 32.519025)"><path style="stroke:none" d="M 21.1875 -23.015625 C 21.34375 -22.972656 21.46875 -22.894531 21.5625 -22.78125 C 21.664062 -22.675781 21.695312 -22.53125 21.65625 -22.34375 C 21.625 -22.0625 21.597656 -21.769531 21.578125 -21.46875 C 21.554688 -21.164062 21.492188 -20.878906 21.390625 -20.609375 C 21.023438 -19.722656 20.59375 -18.878906 20.09375 -18.078125 C 19.59375 -17.273438 18.957031 -16.566406 18.1875 -15.953125 C 18 -15.816406 17.851562 -15.664062 17.75 -15.5 C 17.65625 -15.332031 17.578125 -15.125 17.515625 -14.875 C 17.222656 -13.65625 16.910156 -12.4375 16.578125 -11.21875 C 16.242188 -10.007812 15.921875 -8.796875 15.609375 -7.578125 C 15.367188 -6.546875 15.195312 -5.492188 15.09375 -4.421875 C 14.988281 -3.359375 14.953125 -2.296875 14.984375 -1.234375 C 15.003906 -0.765625 15.117188 -0.347656 15.328125 0.015625 C 15.535156 0.378906 15.816406 0.707031 16.171875 1 C 16.328125 1.132812 16.488281 1.257812 16.65625 1.375 C 16.820312 1.5 16.863281 1.6875 16.78125 1.9375 C 16.707031 2.113281 16.609375 2.226562 16.484375 2.28125 C 16.367188 2.34375 16.242188 2.375 16.109375 2.375 C 15.046875 2.375 14.113281 2.035156 13.3125 1.359375 C 12.507812 0.691406 12.109375 -0.191406 12.109375 -1.296875 C 12.085938 -2.679688 12.164062 -4.050781 12.34375 -5.40625 C 12.519531 -6.757812 12.785156 -8.101562 13.140625 -9.4375 C 13.316406 -10.039062 13.484375 -10.648438 13.640625 -11.265625 C 13.796875 -11.890625 13.960938 -12.550781 14.140625 -13.25 C 13.878906 -13.113281 13.640625 -13 13.421875 -12.90625 C 13.210938 -12.820312 13.019531 -12.722656 12.84375 -12.609375 C 12.550781 -12.453125 12.242188 -12.296875 11.921875 -12.140625 C 11.597656 -11.984375 11.335938 -11.785156 11.140625 -11.546875 C 10.941406 -11.296875 10.800781 -11.003906 10.71875 -10.671875 C 10.644531 -10.335938 10.539062 -10.015625 10.40625 -9.703125 C 10.007812 -8.640625 9.59375 -7.578125 9.15625 -6.515625 C 8.71875 -5.460938 8.222656 -4.4375 7.671875 -3.4375 C 7.046875 -2.320312 6.253906 -1.507812 5.296875 -1 C 4.347656 -0.488281 3.269531 -0.1875 2.0625 -0.09375 C 1.488281 -0.09375 1.066406 -0.179688 0.796875 -0.359375 C 0.535156 -0.546875 0.328125 -0.925781 0.171875 -1.5 C -0.0351562 -2.164062 -0.0625 -2.789062 0.09375 -3.375 C 0.25 -3.96875 0.484375 -4.546875 0.796875 -5.109375 C 1.304688 -5.953125 1.914062 -6.664062 2.625 -7.25 C 3.34375 -7.84375 4.113281 -8.375 4.9375 -8.84375 C 5.332031 -9.0625 5.722656 -9.269531 6.109375 -9.46875 C 6.503906 -9.675781 6.890625 -9.890625 7.265625 -10.109375 C 7.554688 -10.265625 7.738281 -10.453125 7.8125 -10.671875 C 8.050781 -11.453125 8.289062 -12.226562 8.53125 -13 C 8.78125 -13.78125 9.003906 -14.570312 9.203125 -15.375 C 9.710938 -17.351562 9.835938 -19.320312 9.578125 -21.28125 C 9.554688 -21.375 9.546875 -21.457031 9.546875 -21.53125 C 9.546875 -21.613281 9.53125 -21.695312 9.5 -21.78125 C 9.351562 -22.363281 8.96875 -22.65625 8.34375 -22.65625 C 7.425781 -22.65625 6.648438 -22.351562 6.015625 -21.75 C 5.390625 -21.144531 4.816406 -20.5 4.296875 -19.8125 C 3.648438 -18.90625 3.570312 -17.925781 4.0625 -16.875 C 3.9375 -16.832031 3.863281 -16.8125 3.84375 -16.8125 C 3.75 -16.8125 3.660156 -16.84375 3.578125 -16.90625 C 3.503906 -16.976562 3.4375 -17.054688 3.375 -17.140625 C 2.945312 -17.703125 2.859375 -18.316406 3.109375 -18.984375 C 3.546875 -19.984375 4.097656 -20.867188 4.765625 -21.640625 C 5.429688 -22.421875 6.3125 -22.96875 7.40625 -23.28125 C 7.71875 -23.375 8.050781 -23.425781 8.40625 -23.4375 C 8.757812 -23.445312 9.113281 -23.460938 9.46875 -23.484375 C 9.875 -23.484375 10.289062 -23.347656 10.71875 -23.078125 C 11.15625 -22.816406 11.535156 -22.484375 11.859375 -22.078125 C 12.179688 -21.679688 12.375 -21.257812 12.4375 -20.8125 C 12.550781 -20.125 12.601562 -19.445312 12.59375 -18.78125 C 12.582031 -18.113281 12.507812 -17.445312 12.375 -16.78125 C 12.257812 -16.113281 12.140625 -15.445312 12.015625 -14.78125 C 11.898438 -14.113281 11.6875 -13.46875 11.375 -12.84375 C 11.351562 -12.78125 11.34375 -12.710938 11.34375 -12.640625 C 11.34375 -12.578125 11.34375 -12.5 11.34375 -12.40625 C 11.832031 -12.65625 12.3125 -12.898438 12.78125 -13.140625 C 13.25 -13.390625 13.703125 -13.632812 14.140625 -13.875 C 14.234375 -13.914062 14.3125 -13.984375 14.375 -14.078125 C 14.445312 -14.171875 14.492188 -14.257812 14.515625 -14.34375 C 14.953125 -15.476562 15.410156 -16.613281 15.890625 -17.75 C 16.367188 -18.882812 16.921875 -19.972656 17.546875 -21.015625 C 17.703125 -21.304688 17.90625 -21.625 18.15625 -21.96875 C 18.414062 -22.3125 18.707031 -22.609375 19.03125 -22.859375 C 19.351562 -23.117188 19.691406 -23.25 20.046875 -23.25 C 20.222656 -23.25 20.398438 -23.226562 20.578125 -23.1875 C 20.753906 -23.144531 20.957031 -23.085938 21.1875 -23.015625 Z M 2 -1.0625 C 3.375 -1.351562 4.375 -2.132812 5 -3.40625 C 5.507812 -4.332031 5.941406 -5.300781 6.296875 -6.3125 C 6.660156 -7.332031 7.007812 -8.375 7.34375 -9.4375 C 7.207031 -9.375 7.082031 -9.3125 6.96875 -9.25 C 6.863281 -9.195312 6.765625 -9.140625 6.671875 -9.078125 C 5.847656 -8.585938 4.96875 -7.984375 4.03125 -7.265625 C 3.101562 -6.554688 2.414062 -5.769531 1.96875 -4.90625 C 1.65625 -4.28125 1.441406 -3.648438 1.328125 -3.015625 C 1.222656 -2.378906 1.445312 -1.726562 2 -1.0625 Z M 20.3125 -20.34375 C 20.445312 -20.632812 20.523438 -20.9375 20.546875 -21.25 C 20.566406 -21.5625 20.601562 -21.863281 20.65625 -22.15625 C 20.65625 -22.21875 20.617188 -22.289062 20.546875 -22.375 C 20.484375 -22.46875 20.414062 -22.582031 20.34375 -22.71875 C 19.613281 -21.851562 19.117188 -20.925781 18.859375 -19.9375 C 18.609375 -18.945312 18.347656 -17.960938 18.078125 -16.984375 C 18.117188 -16.960938 18.148438 -16.941406 18.171875 -16.921875 C 18.203125 -16.910156 18.226562 -16.894531 18.25 -16.875 C 18.3125 -16.988281 18.382812 -17.082031 18.46875 -17.15625 C 18.5625 -17.238281 18.632812 -17.320312 18.6875 -17.40625 C 18.96875 -17.894531 19.253906 -18.382812 19.546875 -18.875 C 19.835938 -19.363281 20.09375 -19.851562 20.3125 -20.34375 Z M 20.3125 -20.34375 "/></g></g><g style="fill:#f9c74f;fill-opacity:1;"><g transform="translate(25.430877, 32.519025)"><path style="stroke:none" d="M 15.3125 -18.84375 C 15.351562 -18.757812 15.375 -18.679688 15.375 -18.609375 C 15.394531 -17.921875 15.40625 -17.222656 15.40625 -16.515625 C 15.40625 -15.804688 15.285156 -15.09375 15.046875 -14.375 C 14.972656 -14.195312 14.910156 -14.007812 14.859375 -13.8125 C 14.804688 -13.613281 14.757812 -13.425781 14.71875 -13.25 C 14.601562 -12.757812 14.421875 -12.3125 14.171875 -11.90625 C 13.929688 -11.507812 13.597656 -11.15625 13.171875 -10.84375 C 12.929688 -10.6875 12.679688 -10.519531 12.421875 -10.34375 C 12.171875 -10.164062 11.910156 -9.988281 11.640625 -9.8125 C 10.753906 -9.1875 9.84375 -8.875 8.90625 -8.875 C 8.300781 -8.875 7.710938 -8.984375 7.140625 -9.203125 C 6.828125 -7.941406 6.5 -6.679688 6.15625 -5.421875 C 5.8125 -4.160156 5.453125 -2.910156 5.078125 -1.671875 C 5.003906 -1.441406 4.90625 -1.253906 4.78125 -1.109375 C 4.664062 -0.972656 4.492188 -0.894531 4.265625 -0.875 C 4.179688 -0.875 4.09375 -0.863281 4 -0.84375 C 3.914062 -0.832031 3.816406 -0.828125 3.703125 -0.828125 C 3.390625 -0.828125 3.066406 -0.863281 2.734375 -0.9375 C 2.441406 -0.976562 2.265625 -1.070312 2.203125 -1.21875 C 2.140625 -1.363281 2.140625 -1.582031 2.203125 -1.875 C 2.359375 -2.445312 2.515625 -3.003906 2.671875 -3.546875 C 2.828125 -4.097656 2.984375 -4.648438 3.140625 -5.203125 C 3.785156 -7.242188 4.28125 -9.316406 4.625 -11.421875 C 4.96875 -13.523438 5.140625 -15.65625 5.140625 -17.8125 C 5.140625 -18.125 5.144531 -18.421875 5.15625 -18.703125 C 5.164062 -18.992188 5.179688 -19.285156 5.203125 -19.578125 C 5.242188 -19.960938 5.40625 -20.191406 5.6875 -20.265625 C 5.96875 -20.335938 6.25 -20.375 6.53125 -20.375 C 6.582031 -20.375 6.628906 -20.375 6.671875 -20.375 C 6.710938 -20.375 6.742188 -20.375 6.765625 -20.375 C 7.128906 -20.351562 7.367188 -20.273438 7.484375 -20.140625 C 7.609375 -20.015625 7.71875 -19.785156 7.8125 -19.453125 C 7.9375 -18.785156 8 -18.125 8 -17.46875 C 8 -16.8125 7.976562 -16.160156 7.9375 -15.515625 C 7.894531 -14.691406 7.828125 -13.867188 7.734375 -13.046875 C 7.648438 -12.222656 7.5625 -11.363281 7.46875 -10.46875 C 7.582031 -10.40625 7.691406 -10.332031 7.796875 -10.25 C 7.910156 -10.175781 8.023438 -10.09375 8.140625 -10 C 8.335938 -9.894531 8.570312 -9.84375 8.84375 -9.84375 C 9.15625 -9.84375 9.429688 -9.929688 9.671875 -10.109375 C 10.472656 -10.617188 11.144531 -11.21875 11.6875 -11.90625 C 12.238281 -12.59375 12.644531 -13.40625 12.90625 -14.34375 C 13.0625 -14.925781 13.171875 -15.503906 13.234375 -16.078125 C 13.304688 -16.660156 13.320312 -17.25 13.28125 -17.84375 C 13.207031 -18.5625 12.960938 -19.273438 12.546875 -19.984375 C 12.140625 -20.691406 11.613281 -21.285156 10.96875 -21.765625 C 10.320312 -22.242188 9.613281 -22.484375 8.84375 -22.484375 C 7.976562 -22.484375 7.082031 -22.257812 6.15625 -21.8125 C 5.226562 -21.375 4.378906 -20.8125 3.609375 -20.125 C 2.847656 -19.445312 2.242188 -18.753906 1.796875 -18.046875 C 1.578125 -17.691406 1.347656 -17.351562 1.109375 -17.03125 C 0.878906 -16.707031 0.644531 -16.378906 0.40625 -16.046875 C 0.132812 -16.160156 0 -16.289062 0 -16.4375 C 0 -16.59375 0.046875 -16.75 0.140625 -16.90625 C 0.671875 -18.039062 1.382812 -19.09375 2.28125 -20.0625 C 3.1875 -21.03125 4.222656 -21.8125 5.390625 -22.40625 C 6.554688 -23.007812 7.773438 -23.3125 9.046875 -23.3125 C 10.441406 -23.3125 11.726562 -22.910156 12.90625 -22.109375 C 14.082031 -21.316406 14.882812 -20.226562 15.3125 -18.84375 Z M 15.3125 -18.84375 "/></g></g></g></svg>